PathFileType	4	(X/Y/Z)	Gait_media_markers.trc
DataRate	CameraRate	NumFrames	NumMarkers	Units	OrigDataRate	OrigDataStartFrame	OrigNumFrames
100	100	10	38	m	100	1	87
Frame#	Time	RASI			RPSI			LPSI			LASI			RTROCH			RTHI			RTHI2			RTHI3			RTHI4			RKNE			RKNEM			RTIB			RTIB2			RTIB3			RTIB4			RANK			RANKM			RHEE			RTOE			RTOEL			RTOEM			LTROCH			LTHI			LTHI2			LTHI3			LTHI4			LKNE			LKNEM			LTIB			LTIB2			LTIB3			LTIB4			LANK			LANKM			LHEE			LTOE			LTOEL			LTOEM
		X1	Y1	Z1	X2	Y2	Z2	X3	Y3	Z3	X4	Y4	Z4	X5	Y5	Z5	X6	Y6	Z6	X7	Y7	Z7	X8	Y8	Z8	X9	Y9	Z9	X10	Y10	Z10	X11	Y11	Z11	X12	Y12	Z12	X13	Y13	Z13	X14	Y14	Z14	X15	Y15	Z15	X16	Y16	Z16	X17	Y17	Z17	X18	Y18	Z18	X19	Y19	Z19	X20	Y20	Z20	X21	Y21	Z21	X22	Y22	Z22	X23	Y23	Z23	X24	Y24	Z24	X25	Y25	Z25	X26	Y26	Z26	X27	Y27	Z27	X28	Y28	Z28	X29	Y29	Z29	X30	Y30	Z30	X31	Y31	Z31	X32	Y32	Z32	X33	Y33	Z33	X34	Y34	Z34	X35	Y35	Z35	X36	Y36	Z36	X37	Y37	Z37	X38	Y38	Z38

1	0.000000	-0.307099	0.957807	-0.721990	-0.269085	1.008065	-0.910782	-0.171370	0.995879	-0.917268	-0.083861	0.971420	-0.742851	-0.373086	0.886400	-0.780006	-0.380640	0.766756	-0.804100	-0.353470	0.765753	-0.742815	-0.337190	0.684626	-0.741949	-0.362568	0.679911	-0.802241	-0.324802	0.532335	-0.823526	-0.218336	0.544548	-0.855949	-0.352913	0.402974	-0.873267	-0.305620	0.389931	-0.825905	-0.303831	0.305588	-0.842305	-0.350451	0.322101	-0.890464	-0.299540	0.111502	-0.956286	-0.222691	0.115799	-0.941092	-0.268786	0.060219	-1.026933	-0.261378	0.056807	-0.788236	-0.327533	0.040536	-0.834634	-0.210944	0.030448	-0.812738	-0.034363	0.900225	-0.818644	-0.025792	0.697218	-0.721174	-0.044139	0.716855	-0.663988	-0.056428	0.636668	-0.644158	-0.039603	0.612574	-0.701364	-0.059229	0.544822	-0.652705	-0.170391	0.556462	-0.658682	-0.034176	0.323753	-0.624078	-0.055757	0.347827	-0.568134	-0.062608	0.262322	-0.547436	-0.042889	0.243943	-0.603759	-0.062864	0.114516	-0.556454	-0.138118	0.149358	-0.532007	-0.112423	0.051918	-0.592087	-0.076819	0.142529	-0.378066	-0.027560	0.103758	-0.412276	-0.129496	0.125326	-0.389247
2	0.010000	-0.307820	0.956389	-0.711706	-0.267632	1.006575	-0.900193	-0.171140	0.996013	-0.907858	-0.084357	0.968653	-0.730371	-0.373592	0.885322	-0.770750	-0.381224	0.765960	-0.795935	-0.354442	0.764622	-0.733172	-0.338407	0.683189	-0.734421	-0.363357	0.679109	-0.794909	-0.325597	0.531660	-0.818006	-0.218804	0.544337	-0.849372	-0.353432	0.402792	-0.869622	-0.307463	0.389853	-0.821593	-0.304640	0.305320	-0.839635	-0.350908	0.322208	-0.887902	-0.299495	0.112163	-0.955674	-0.221839	0.116981	-0.940060	-0.268342	0.060707	-1.026687	-0.261453	0.056432	-0.787988	-0.327634	0.041166	-0.835070	-0.211160	0.030894	-0.812809	-0.034367	0.897302	-0.805820	-0.025037	0.693571	-0.711297	-0.046168	0.712272	-0.654820	-0.057241	0.631777	-0.636180	-0.037736	0.608564	-0.692645	-0.059927	0.541466	-0.643882	-0.172384	0.551910	-0.652903	-0.036007	0.322576	-0.606178	-0.057458	0.349163	-0.551800	-0.065289	0.264901	-0.525577	-0.044432	0.243136	-0.580818	-0.065367	0.116570	-0.527001	-0.139695	0.153714	-0.504506	-0.114457	0.052186	-0.559076	-0.081425	0.152002	-0.349769	-0.032386	0.110956	-0.380963	-0.134557	0.135869	-0.361371
3	0.020000	-0.308597	0.954716	-0.701298	-0.266061	1.004885	-0.889468	-0.168135	0.991741	-0.893252	-0.084785	0.965932	-0.717694	-0.374270	0.883731	-0.761857	-0.381849	0.764948	-0.787554	-0.355480	0.763056	-0.724695	-0.339535	0.681629	-0.726608	-0.363995	0.678074	-0.787229	-0.326236	0.530900	-0.812174	-0.219157	0.543739	-0.842386	-0.352179	0.401123	-0.863847	-0.308792	0.389378	-0.817075	-0.305096	0.304977	-0.837077	-0.351173	0.322119	-0.884977	-0.299335	0.112901	-0.954945	-0.221734	0.117568	-0.939000	-0.267886	0.061292	-1.026435	-0.261961	0.055462	-0.788353	-0.327616	0.041160	-0.834988	-0.211156	0.030202	-0.812114	-0.034368	0.894204	-0.792860	-0.024084	0.690606	-0.700827	-0.048058	0.708025	-0.645268	-0.057554	0.627184	-0.627371	-0.034833	0.605350	-0.683340	-0.059514	0.539471	-0.634853	-0.172822	0.547560	-0.646424	-0.037341	0.321459	-0.589186	-0.058508	0.350581	-0.535999	-0.066867	0.267581	-0.506145	-0.046060	0.243503	-0.560447	-0.068242	0.118662	-0.499690	-0.141751	0.158442	-0.479575	-0.117612	0.055117	-0.529999	-0.086961	0.160910	-0.324196	-0.038076	0.116984	-0.352994	-0.139604	0.146285	-0.336048
4	0.030000	-0.309404	0.952853	-0.690893	-0.264409	1.003128	-0.878741	-0.166377	0.989517	-0.881261	-0.085477	0.963047	-0.705267	-0.374721	0.882186	-0.752646	-0.382386	0.763783	-0.779109	-0.356420	0.761383	-0.716141	-0.340495	0.679956	-0.718589	-0.365262	0.676861	-0.780241	-0.326713	0.530113	-0.806148	-0.219247	0.543368	-0.835324	-0.353649	0.401642	-0.860854	-0.309827	0.388897	-0.812252	-0.305437	0.304316	-0.833889	-0.351082	0.321887	-0.881479	-0.299142	0.113704	-0.954174	-0.221561	0.118024	-0.937972	-0.267493	0.062123	-1.026099	-0.261437	0.055750	-0.787544	-0.327588	0.041134	-0.834889	-0.211168	0.030719	-0.812348	-0.034288	0.891121	-0.779958	-0.022688	0.687783	-0.689348	-0.049147	0.704660	-0.634824	-0.057485	0.623537	-0.617270	-0.032064	0.602343	-0.672194	-0.059771	0.536659	-0.624705	-0.173085	0.544827	-0.637648	-0.038671	0.320130	-0.573280	-0.059427	0.351478	-0.521160	-0.068410	0.269799	-0.488183	-0.048111	0.243844	-0.542062	-0.071446	0.120580	-0.475195	-0.144214	0.162683	-0.457319	-0.121593	0.057130	-0.503792	-0.091470	0.169475	-0.301183	-0.044230	0.123503	-0.327246	-0.144098	0.155926	-0.313850
5	0.040000	-0.310203	0.950902	-0.680413	-0.262814	1.001229	-0.867986	-0.166074	0.989965	-0.873002	-0.086118	0.960213	-0.692969	-0.374879	0.880607	-0.743100	-0.383606	0.762964	-0.773269	-0.357199	0.759579	-0.707552	-0.341242	0.678261	-0.710613	-0.364927	0.675692	-0.771651	-0.326988	0.529314	-0.800061	-0.219192	0.542905	-0.828042	-0.353620	0.401356	-0.856294	-0.310433	0.388590	-0.806990	-0.305694	0.303714	-0.830436	-0.351056	0.321952	-0.878037	-0.299050	0.114625	-0.953318	-0.221303	0.118410	-0.936723	-0.267088	0.063107	-1.025774	-0.261380	0.055352	-0.787289	-0.327519	0.041118	-0.834801	-0.211086	0.030737	-0.812164	-0.034081	0.888125	-0.767102	-0.022209	0.685416	-0.677185	-0.049135	0.702467	-0.622913	-0.057775	0.621283	-0.605424	-0.031622	0.600084	-0.659900	-0.060055	0.534168	-0.613632	-0.172124	0.542921	-0.626464	-0.040434	0.318627	-0.558395	-0.060389	0.352152	-0.506820	-0.069936	0.271213	-0.472023	-0.050538	0.243290	-0.525090	-0.074820	0.122013	-0.453803	-0.147057	0.165749	-0.437864	-0.125667	0.058304	-0.480796	-0.096085	0.176638	-0.281258	-0.049937	0.127712	-0.304712	-0.149118	0.164685	-0.294150
6	0.050000	-0.310784	0.948929	-0.669861	-0.261299	0.999265	-0.857138	-0.164486	0.987866	-0.861617	-0.086712	0.957516	-0.680881	-0.374990	0.878877	-0.733555	-0.383554	0.761875	-0.764209	-0.357839	0.757849	-0.698858	-0.341754	0.676602	-0.702547	-0.365977	0.674706	-0.764687	-0.326956	0.528469	-0.793732	-0.218961	0.541949	-0.820171	-0.353428	0.401015	-0.851441	-0.308632	0.386565	-0.803561	-0.305746	0.303060	-0.826801	-0.350824	0.321993	-0.874252	-0.298967	0.115632	-0.952389	-0.221251	0.119323	-0.935636	-0.267007	0.064638	-1.025283	-0.261340	0.055016	-0.787105	-0.327480	0.041086	-0.834699	-0.211059	0.030776	-0.812039	-0.033712	0.885508	-0.754414	-0.022430	0.683841	-0.664302	-0.048726	0.701391	-0.609750	-0.058430	0.620404	-0.592248	-0.033325	0.598570	-0.647018	-0.060614	0.531928	-0.601552	-0.171319	0.541939	-0.613448	-0.042283	0.317421	-0.544087	-0.061663	0.351805	-0.492746	-0.071938	0.271513	-0.456443	-0.053006	0.242586	-0.509421	-0.078084	0.122291	-0.435176	-0.150112	0.167110	-0.421056	-0.129054	0.058616	-0.461589	-0.100932	0.180755	-0.264048	-0.054938	0.130764	-0.286007	-0.153486	0.169363	-0.277956
7	0.060000	-0.311266	0.946778	-0.659182	-0.259997	0.997319	-0.846339	-0.163184	0.985886	-0.850321	-0.087126	0.955181	-0.668930	-0.374979	0.877042	-0.723894	-0.383121	0.760530	-0.754524	-0.358180	0.756260	-0.690070	-0.342012	0.675009	-0.694281	-0.365738	0.673481	-0.756398	-0.326645	0.527554	-0.786913	-0.218524	0.541329	-0.812359	-0.352960	0.400702	-0.846125	-0.309972	0.386907	-0.798102	-0.305652	0.302419	-0.822917	-0.350567	0.322187	-0.870354	-0.298460	0.116478	-0.951104	-0.222320	0.119323	-0.934312	-0.266981	0.066358	-1.024685	-0.261272	0.054594	-0.786913	-0.327469	0.041053	-0.834594	-0.211633	0.031600	-0.813063	-0.033314	0.883325	-0.741934	-0.023083	0.682967	-0.650636	-0.048690	0.700762	-0.595908	-0.059472	0.620056	-0.578082	-0.034889	0.597764	-0.633050	-0.061656	0.529994	-0.588040	-0.170952	0.541253	-0.598913	-0.044185	0.316441	-0.529246	-0.063648	0.351174	-0.478201	-0.074487	0.271010	-0.441798	-0.055344	0.241757	-0.494544	-0.080962	0.122101	-0.420060	-0.153195	0.166592	-0.406727	-0.131530	0.057922	-0.446494	-0.105715	0.181076	-0.249208	-0.059500	0.131093	-0.270465	-0.158637	0.169202	-0.263264
8	0.070000	-0.311548	0.944794	-0.648544	-0.258923	0.995413	-0.835403	-0.162102	0.984090	-0.838923	-0.087292	0.953445	-0.657067	-0.374816	0.875461	-0.713932	-0.382770	0.759434	-0.745355	-0.358168	0.754692	-0.680935	-0.341922	0.673461	-0.685664	-0.365474	0.672410	-0.748012	-0.326447	0.526859	-0.779821	-0.217993	0.540581	-0.804163	-0.351640	0.400111	-0.840079	-0.309657	0.386010	-0.792898	-0.305642	0.302006	-0.819003	-0.350211	0.322494	-0.866164	-0.299012	0.118273	-0.950167	-0.221293	0.121616	-0.932943	-0.266972	0.068533	-1.024130	-0.262489	0.054697	-0.786968	-0.327477	0.040999	-0.834539	-0.211886	0.029910	-0.811629	-0.032904	0.881633	-0.729719	-0.023968	0.682198	-0.636467	-0.049161	0.700680	-0.581759	-0.060311	0.620073	-0.563384	-0.036295	0.597409	-0.618464	-0.062708	0.529745	-0.573344	-0.171007	0.541948	-0.584035	-0.046014	0.315949	-0.514217	-0.066504	0.349668	-0.463418	-0.077607	0.269508	-0.427773	-0.057367	0.240809	-0.480080	-0.083571	0.120820	-0.407759	-0.156234	0.164185	-0.394950	-0.133208	0.056029	-0.435085	-0.110569	0.177920	-0.236722	-0.063571	0.128720	-0.257990	-0.163232	0.165460	-0.251298
9	0.080000	-0.311771	0.943150	-0.637913	-0.258059	0.993776	-0.824474	-0.161255	0.982392	-0.827477	-0.087260	0.952002	-0.645102	-0.374747	0.873995	-0.704001	-0.382502	0.758488	-0.736340	-0.358152	0.753316	-0.671707	-0.341739	0.672155	-0.676958	-0.364891	0.671416	-0.739242	-0.325932	0.525906	-0.772135	-0.217142	0.540616	-0.796390	-0.352110	0.400835	-0.835291	-0.309505	0.385211	-0.787500	-0.305621	0.301716	-0.814951	-0.350077	0.323165	-0.862102	-0.299133	0.119914	-0.948995	-0.221369	0.123005	-0.931488	-0.267055	0.070754	-1.023266	-0.262309	0.053749	-0.786445	-0.327511	0.040954	-0.834451	-0.212102	0.029473	-0.811124	-0.032623	0.880223	-0.717471	-0.024872	0.681642	-0.621973	-0.050081	0.701408	-0.567976	-0.061304	0.620423	-0.548211	-0.037637	0.597034	-0.603193	-0.064503	0.529987	-0.557208	-0.171984	0.542776	-0.567437	-0.047833	0.315223	-0.499054	-0.069912	0.348247	-0.448064	-0.081274	0.266868	-0.414404	-0.059229	0.239573	-0.466831	-0.085715	0.118108	-0.397940	-0.158983	0.160268	-0.385565	-0.134438	0.053153	-0.427035	-0.115158	0.172541	-0.226575	-0.067378	0.124321	-0.248331	-0.167523	0.159301	-0.241755
10	0.090000	-0.311725	0.941500	-0.627034	-0.257199	0.992274	-0.813211	-0.160532	0.980723	-0.815732	-0.086977	0.951117	-0.632873	-0.373637	0.872201	-0.693347	-0.382068	0.757491	-0.727073	-0.357995	0.751824	-0.662357	-0.341500	0.670849	-0.668136	-0.364392	0.670514	-0.730533	-0.325731	0.525473	-0.764910	-0.216623	0.539112	-0.786392	-0.351688	0.401187	-0.829690	-0.309641	0.384721	-0.781999	-0.305743	0.301564	-0.810803	-0.349824	0.323963	-0.857652	-0.299334	0.121544	-0.947641	-0.221720	0.124525	-0.929930	-0.267075	0.073289	-1.022293	-0.261674	0.052779	-0.786306	-0.327591	0.041001	-0.834291	-0.212154	0.029247	-0.810700	-0.032334	0.878876	-0.704913	-0.025538	0.680900	-0.607046	-0.050279	0.702059	-0.552710	-0.062521	0.620920	-0.532543	-0.039180	0.596649	-0.587244	-0.066803	0.530509	-0.539973	-0.173639	0.543795	-0.550700	-0.049680	0.313643	-0.483762	-0.074104	0.345368	-0.433921	-0.084958	0.263342	-0.402357	-0.060894	0.237809	-0.454805	-0.087616	0.114623	-0.390541	-0.161593	0.155818	-0.377930	-0.135194	0.049422	-0.421472	-0.119570	0.165561	-0.218796	-0.070825	0.118508	-0.241015	-0.171530	0.151582	-0.234639
